<svg width="16" height="16" viewBox="0 0 16 16" fill="none" xmlns="http://www.w3.org/2000/svg">
<g clip-path="url(#clip0_3001_14800)">
<path d="M9.09965 15.5C8.35965 15.5 7.61465 15.215 7.04965 14.65C5.91965 13.52 5.91965 11.68 7.04965 10.55L11.9996 5.60004V12.6C11.9996 13.4 11.6746 14.125 11.1496 14.65C10.8646 14.935 10.5396 15.145 10.1896 15.285C9.85465 15.42 9.48465 15.5 9.09965 15.5ZM10.9996 8.01504L7.75965 11.255C7.01965 11.995 7.01965 13.2 7.75965 13.94C8.30965 14.49 9.12465 14.63 9.80465 14.36C10.5046 14.08 10.9996 13.395 10.9996 12.595V8.01004V8.01504Z" fill="white"/>
<path d="M3.98496 10.39C3.24496 10.39 2.49996 10.105 1.93496 9.54003C1.36996 8.97503 1.08496 8.23503 1.08496 7.49003C1.08496 7.09503 1.16496 6.71503 1.30996 6.37503C1.44996 6.03503 1.65996 5.72003 1.93496 5.44003C2.45996 4.91503 3.18496 4.59003 3.98496 4.59003H10.985L6.03496 9.54003C5.46996 10.105 4.72996 10.39 3.98496 10.39ZM2.23496 6.76003C1.94996 7.45003 2.08496 8.27503 2.64496 8.83503C3.38496 9.57503 4.58996 9.57503 5.32996 8.83503L8.56996 5.59503H3.98496C3.19496 5.59503 2.51996 6.08003 2.22996 6.76503L2.23496 6.76003Z" fill="white"/>
<path d="M13.2945 5.765C12.9045 5.375 12.9045 4.74 13.2945 4.35C13.6845 3.96 14.3195 3.96 14.7095 4.35C15.0995 4.74 15.0995 5.375 14.7095 5.765C14.3195 6.15499 13.6845 6.15499 13.2945 5.765Z" fill="white"/>
<path d="M10.8198 3.29002C10.4298 2.90002 10.4298 2.26502 10.8198 1.87502C11.2098 1.48502 11.8448 1.48502 12.2348 1.87502C12.6248 2.26502 12.6248 2.90002 12.2348 3.29002C11.8448 3.68002 11.2098 3.68002 10.8198 3.29002Z" fill="white"/>
</g>
<defs>
<clipPath id="clip0_3001_14800">
<rect width="16" height="16" fill="white"/>
</clipPath>
</defs>
</svg>
